<svg width="1008" height="243" viewBox="0 0 1008 243" fill="none" xmlns="http://www.w3.org/2000/svg">
<g clip-path="url(#clip0_31_6)">
<path d="M121.5 0C188.603 0 243 54.3974 243 121.5C243 188.603 188.603 243 121.5 243C54.3974 243 0 188.603 0 121.5C0 54.3974 54.3974 0 121.5 0ZM122.053 36.4502C74.7759 36.4502 36.4502 74.7759 36.4502 122.053C36.4504 169.329 74.7761 207.654 122.053 207.654C169.329 207.654 207.654 169.329 207.654 122.053C207.654 74.7761 169.329 36.4504 122.053 36.4502Z" fill="#FFDC00"/>
<path d="M389.964 76C408.564 76 418.689 86.125 418.689 104.8V152.2C418.689 170.875 408.564 181 389.964 181H280.839V157.375H383.889C391.314 157.375 392.439 156.25 392.439 148.825V108.175C392.439 100.75 391.314 99.625 383.889 99.625H280.839V76H389.964ZM476.825 140.5C469.475 140.5 468.35 141.7 468.35 148.975C468.35 156.25 469.475 157.375 476.825 157.375H559.7V140.5H476.825ZM443.225 152.2V145.675C443.225 127.075 453.35 116.95 471.95 116.95H559.7V108.175C559.7 100.75 558.575 99.625 551.225 99.625H449.6V76H556.1C574.7 76 584.825 86.125 584.825 104.8V162.775H584.75V181H471.95C453.35 181 443.225 170.875 443.225 152.2ZM754.205 181H725.78V177.55L780.08 76H808.43V79.45L754.205 181ZM596.255 79.45V76H624.305L663.905 154.825L704.48 77.5H732.83V80.95L679.505 181H647.855L596.255 79.45ZM821.117 76H939.017C957.617 76 967.817 86.125 967.817 104.8V181H941.567V108.175C941.567 100.75 940.367 99.625 933.017 99.625H847.367V181H821.117V76Z" fill="#C8C8C8"/>
</g>
<defs>
<clipPath id="clip0_31_6">
<rect width="1008" height="243" fill="white"/>
</clipPath>
</defs>
</svg>
