<svg width="798" height="256" viewBox="0 0 798 256" fill="none" xmlns="http://www.w3.org/2000/svg">
<g clip-path="url(#clip0_31_6)">
<path d="M128 18C188.751 18 238 67.2487 238 128C238 188.751 188.751 238 128 238C67.2487 238 18 188.751 18 128C18 67.2487 67.2487 18 128 18ZM128 53C86.5786 53 53 86.5786 53 128C53 169.421 86.5786 203 128 203C169.421 203 203 169.421 203 128C203 86.5786 169.421 53 128 53Z" fill="#FFDC00"/>
<path d="M404.833 127.8C404.833 146.467 398.633 162.533 386.233 176C373.966 189.467 359.766 195.933 343.633 195.4C319.366 194.6 296.633 194.467 275.433 195V188.8H294.233V63.4H275.433V57.2C287.299 57.8667 297.833 58.1333 307.033 58C316.233 57.8667 328.633 57.8667 344.233 58C363.033 58.2667 377.833 64.6667 388.633 77.2C399.433 89.6 404.833 106.467 404.833 127.8ZM374.233 169.6C380.766 159.2 383.899 144.867 383.633 126.6C383.499 108.2 380.899 94.0667 375.833 84.2C369.566 71.5333 359.033 64.6 344.233 63.4C332.233 62.7333 321.499 63 312.033 64.2V188.8C321.099 189.6 327.899 190 332.433 190C337.099 190 340.899 189.867 343.833 189.6C357.566 187.6 367.699 180.933 374.233 169.6ZM513.414 189.4V195H481.414V178.6C469.547 191.133 458.347 197.4 447.814 197.4C440.747 197.4 435.081 195.333 430.814 191.2C426.147 187.067 423.814 181.2 423.814 173.6C423.814 163.067 427.881 155.2 436.014 150C442.147 146.267 450.747 143.4 461.814 141.4L481.414 138C481.681 128.533 480.881 121.6 479.014 117.2C476.347 110.933 471.747 107.8 465.214 107.8C453.881 107.8 448.147 111.6 448.014 119.2C448.014 120.533 448.747 122.133 450.214 124C451.814 125.733 452.614 126.667 452.614 126.8C452.747 128.8 451.747 130.467 449.614 131.8C447.614 133.133 445.747 133.6 444.014 133.2C437.347 133.2 434.081 129.533 434.214 122.2C434.347 114.733 438.947 109.133 448.014 105.4C453.614 103.267 459.547 102.2 465.814 102.2C476.347 102.2 484.214 105.133 489.414 111C494.614 117.4 497.214 127.533 497.214 141.4V185C497.214 186.333 497.681 187.4 498.614 188.2C499.547 189 500.614 189.4 501.814 189.4H513.414ZM481.414 170.6V144.6C469.814 146.067 460.281 148.267 452.814 151.2C449.347 152.533 446.481 155 444.214 158.6C441.947 162.2 440.814 166.133 440.814 170.4C440.814 174.667 442.281 178.267 445.214 181.2C448.281 184.133 451.881 185.733 456.014 186C460.281 186.133 464.747 184.733 469.414 181.8C474.214 178.733 478.214 175 481.414 170.6ZM671.614 103.6V109.2H666.414C662.681 109.2 659.547 112.067 657.014 117.8L626.014 195H616.214L593.414 130.6L568.414 195H558.214L532.214 113.6C531.414 110.667 529.147 109.2 525.414 109.2H519.014V103.6H565.214V109.2H556.014C552.681 109.2 551.014 110.533 551.014 113.2C551.014 114 551.081 114.6 551.214 115L568.414 176.4L596.014 101.4H602.614L626.014 176.4L647.014 117.8C647.947 115.533 648.414 113.667 648.414 112.2C648.414 110.2 647.281 109.2 645.014 109.2H635.014V103.6H671.614ZM789.822 189.6V195H741.022V189.6H752.822C755.355 189.6 756.822 188.067 757.222 185V137.6C757.222 129.867 755.222 123.867 751.222 119.6C747.222 115.2 742.089 113 735.822 113C729.555 113 723.755 115.067 718.422 119.2C713.355 123.467 710.822 127.467 710.822 131.2V185C711.222 188.067 712.755 189.6 715.422 189.6H727.022V195H678.222V189.6H689.822C692.489 189.6 694.022 188.067 694.422 185V115.8C694.289 111.267 692.022 109 687.622 109H678.222V103.6H711.022V109C710.889 110.6 710.822 112.467 710.822 114.6V118.6C711.889 116.067 714.689 112.867 719.222 109C726.022 103.667 733.422 101 741.422 101C762.889 101 773.622 112.4 773.622 135.2V185C774.022 188.067 775.555 189.6 778.222 189.6H789.822Z" fill="white"/>
</g>
<defs>
<clipPath id="clip0_31_6">
<rect width="798" height="256" fill="white"/>
</clipPath>
</defs>
</svg>
